<svg width="21" height="14" viewBox="0 0 21 14" fill="none" xmlns="http://www.w3.org/2000/svg">
<path d="M19.3299 1.64401C19.2849 1.63633 19.2393 1.63252 19.1937 1.63263H5.9867C5.76778 1.63263 5.55782 1.71985 5.40302 1.8751C5.24823 2.03035 5.16126 2.24092 5.16126 2.46047C5.16126 2.68003 5.24823 2.8906 5.40302 3.04585C5.55782 3.2011 5.76778 3.28832 5.9867 3.28832H18.2192L18.001 4.60149L16.8438 11.5668H6.07595L3.26946 4.60149L1.59537 0.482961C1.50684 0.289212 1.34721 0.13717 1.14972 0.0584856C0.952225 -0.020199 0.732083 -0.0194636 0.535118 0.0605389C0.338153 0.140541 0.179541 0.293646 0.0922992 0.487983C0.00505767 0.682319 -0.00409102 0.902913 0.0667575 1.10384L2.73963 7.68158L4.56385 12.5307C4.6985 12.9389 4.97657 13.2224 5.37794 13.2224H17.5428C17.7383 13.2225 17.9275 13.1531 18.0766 13.0264C18.2258 12.8997 18.3253 12.724 18.3574 12.5307L19.675 4.60149L20.0083 2.59655C20.0443 2.38002 19.993 2.15803 19.8658 1.9794C19.7386 1.80077 19.5458 1.68013 19.3299 1.64401Z" fill="#111111"/>
</svg>
