<svg width="11" height="11" viewBox="0 0 11 11" fill="none" xmlns="http://www.w3.org/2000/svg">
<path d="M5.49972 10.2C6.83628 10.2002 8.11951 9.67091 9.07331 8.72594C10.0271 7.78097 10.5752 6.49588 10.5997 5.14718C10.5997 3.78206 10.0624 2.47286 9.10596 1.50757C8.14953 0.542291 6.85232 0 5.49972 0C4.14711 0 2.84991 0.542291 1.89347 1.50757C0.937039 2.47286 0.399719 3.78206 0.399719 5.14718C0.424223 6.49588 0.972341 7.78097 1.92613 8.72594C2.87993 9.67091 4.16316 10.2002 5.49972 10.2ZM2.09972 5.14718C2.09972 4.2371 2.45793 3.3643 3.09556 2.72078C3.73318 2.07725 4.59798 1.71573 5.49972 1.71573C6.40145 1.71573 7.26626 2.07725 7.90388 2.72078C8.54151 3.3643 8.89972 4.2371 8.89972 5.14718C8.89972 6.05726 8.54151 6.93006 7.90388 7.57359C7.26626 8.21711 6.40145 8.57864 5.49972 8.57864C4.59798 8.57864 3.73318 8.21711 3.09556 7.57359C2.45793 6.93006 2.09972 6.05726 2.09972 5.14718Z" fill="#111111"/>
</svg>
