<svg width="17" height="7" viewBox="0 0 17 7" fill="none" xmlns="http://www.w3.org/2000/svg">
<path d="M16.8927 5.7682C16.0329 4.31371 14.8061 3.10785 13.3338 2.27002C11.8614 1.43219 10.1946 0.991455 8.49845 0.991455C6.80225 0.991455 5.13546 1.43219 3.66314 2.27002C2.19082 3.10785 0.964024 4.31371 0.104236 5.7682C-0.00102398 5.95683 -0.027822 6.17898 0.0295835 6.38704C0.0566587 6.49302 0.106188 6.59201 0.174854 6.67739C0.243521 6.76278 0.329737 6.83258 0.427728 6.88212C0.554141 6.95339 0.697158 6.99038 0.842462 6.98938C0.986554 6.99545 1.12952 6.96165 1.25545 6.89173C1.38138 6.82181 1.48536 6.71851 1.5558 6.59332C2.26752 5.38861 3.2833 4.38978 4.50251 3.69579C5.72172 3.00179 7.10204 2.6367 8.50674 2.6367C9.91144 2.6367 11.2918 3.00179 12.511 3.69579C13.7302 4.38978 14.746 5.38861 15.4577 6.59332C15.5685 6.78065 15.7491 6.91693 15.9603 6.97255C16.1715 7.02817 16.3963 6.99863 16.5858 6.89037C16.6801 6.84033 16.7628 6.77114 16.8285 6.68728C16.8943 6.60341 16.9415 6.50675 16.9673 6.40354C16.998 6.29803 17.0072 6.18748 16.9944 6.07838C16.9816 5.96928 16.947 5.86382 16.8927 5.7682Z" fill="#111111"/>
</svg>
