<svg width="181" height="55" viewBox="0 0 181 55" fill="none" xmlns="http://www.w3.org/2000/svg">
<rect x="0.5" width="180" height="55" rx="27.5" fill="white"/>
<path d="M62.2466 29.601C62.2466 31.382 60.8166 32.63 58.4766 32.63C56.1236 32.63 54.6546 31.369 54.5116 29.393H56.5136C56.5656 30.42 57.2286 31.083 58.4376 31.083C59.4386 31.083 60.1536 30.641 60.1536 29.887C60.1536 29.302 59.6986 28.951 58.9056 28.795L57.3716 28.496C55.9546 28.223 54.8626 27.456 54.8626 25.909C54.8626 24.245 56.3316 23.049 58.3466 23.049C60.4396 23.049 61.9736 24.271 62.1036 26.221H60.1016C60.0366 25.246 59.3606 24.583 58.3726 24.583C57.4106 24.583 56.8646 25.129 56.8646 25.779C56.8646 26.416 57.4496 26.689 58.1256 26.819L59.7246 27.144C61.3626 27.469 62.2466 28.223 62.2466 29.601ZM65.6797 32.5H63.7037V23.166H65.6797V26.845H69.7227V23.166H71.6987V32.5H69.7227V28.548H65.6797V32.5ZM77.8437 32.695C75.1527 32.695 73.0727 30.615 73.0727 27.82C73.0727 25.025 75.1527 22.971 77.8437 22.971C80.5477 22.971 82.6407 25.025 82.6407 27.82C82.6407 30.615 80.5477 32.695 77.8437 32.695ZM77.8437 30.927C79.5597 30.927 80.5997 29.536 80.5997 27.82C80.5997 26.104 79.5597 24.739 77.8437 24.739C76.1407 24.739 75.1007 26.104 75.1007 27.82C75.1007 29.536 76.1407 30.927 77.8437 30.927ZM87.4485 29.458H85.9795V32.5H84.0035V23.166H87.4485C89.7235 23.166 91.1405 24.245 91.1405 26.273C91.1405 28.301 89.7235 29.458 87.4485 29.458ZM87.4355 24.83H85.9795V27.794H87.4355C88.5535 27.794 89.1775 27.209 89.1775 26.286C89.1775 25.363 88.5535 24.83 87.4355 24.83ZM101.285 32.5L97.0078 25.987V32.5H95.2008V23.166H97.3328L101.402 29.354V23.166H103.222V32.5H101.285ZM109.366 32.695C106.675 32.695 104.595 30.615 104.595 27.82C104.595 25.025 106.675 22.971 109.366 22.971C112.07 22.971 114.163 25.025 114.163 27.82C114.163 30.615 112.07 32.695 109.366 32.695ZM109.366 30.927C111.082 30.927 112.122 29.536 112.122 27.82C112.122 26.104 111.082 24.739 109.366 24.739C107.663 24.739 106.623 26.104 106.623 27.82C106.623 29.536 107.663 30.927 109.366 30.927ZM122.319 32.5L120.577 25.974L118.835 32.5H116.833L114.441 23.166H116.365L117.873 29.497L119.589 23.166H121.604L123.268 29.523L124.789 23.166H126.726L124.321 32.5H122.319Z" fill="#111111"/>
</svg>
