<svg width="21" height="20" viewBox="0 0 21 20" fill="none" xmlns="http://www.w3.org/2000/svg">
<path d="M19.2043 6.11735C18.7002 4.93333 17.9756 3.85655 17.0694 2.94468C16.1585 2.03499 15.0854 1.30496 13.9058 0.792583C12.6816 0.269587 11.3648 0 10.0342 0C8.70363 0 7.38676 0.269587 6.16264 0.792583C4.98182 1.29677 3.91083 2.02788 3.01008 2.94468C2.11526 3.86131 1.39876 4.93727 0.897313 6.11735C0.37581 7.34498 0.106995 8.66561 0.106995 10C0.106995 11.3344 0.37581 12.655 0.897313 13.8826C1.40539 15.0645 2.12947 16.1406 3.0322 17.0553C3.93296 17.9721 5.00394 18.7032 6.18476 19.2074C7.40888 19.7304 8.72575 20 10.0563 20C11.3869 20 12.7038 19.7304 13.9279 19.2074C15.1075 18.695 16.1806 17.965 17.0915 17.0553C17.9977 16.1434 18.7223 15.0667 19.2264 13.8826C19.7555 12.6541 20.0194 11.3271 20.0007 9.98891C20.008 8.65675 19.7367 7.33785 19.2043 6.11735ZM14.4257 11.8859C14.1861 12.4726 13.8412 13.0103 13.408 13.4722C12.972 13.9335 12.4544 14.3097 11.8815 14.5815C11.3082 14.8557 10.6804 14.996 10.0453 14.992C9.40656 14.9962 8.77513 14.8559 8.19797 14.5815C7.63011 14.3121 7.11933 13.9355 6.69359 13.4722C6.26398 13.0097 5.92278 12.472 5.68699 11.8859C5.43408 11.2858 5.30609 10.6403 5.31089 9.98891C5.32214 8.70203 5.81573 7.46649 6.69359 6.52781C7.12184 6.06736 7.63204 5.69114 8.19797 5.41848C8.77513 5.14412 9.40656 5.00382 10.0453 5.00803C10.6804 5.00396 11.3082 5.14429 11.8815 5.41848C12.4525 5.69357 12.9695 6.06931 13.408 6.52781C13.8456 6.98192 14.1912 7.51689 14.4257 8.10305C14.6701 8.70177 14.7978 9.34195 14.8018 9.98891C14.8009 10.6398 14.6731 11.2842 14.4257 11.8859Z" fill="#111111"/>
</svg>