<svg width="18" height="20" viewBox="0 0 18 20" fill="none" xmlns="http://www.w3.org/2000/svg">
<path d="M11.7589 1.22514V11.5419C11.7828 12.1367 11.6692 12.729 11.4271 13.2724C11.2348 13.6987 10.9516 14.0774 10.5974 14.3818C10.2896 14.6293 9.93633 14.814 9.55764 14.9253C8.89595 15.1391 8.184 15.1391 7.52231 14.9253C7.12213 14.8172 6.74654 14.6327 6.41615 14.3818C6.05874 14.0778 5.77183 13.6992 5.57546 13.2724C5.34294 12.7263 5.23341 12.1354 5.25468 11.5419V0.00488281H0.000413445V11.5419C-0.0106251 12.7279 0.199465 13.9055 0.619864 15.0141C1.00606 16.0113 1.59355 16.9177 2.34547 17.6765C3.11709 18.4277 4.03629 19.0095 5.04451 19.3848C6.16345 19.7957 7.34861 19.995 8.53998 19.9728C9.73203 19.9914 10.9172 19.7883 12.0354 19.3737C13.0437 18.9984 13.9629 18.4166 14.7345 17.6654C15.4878 16.9099 16.0723 16.0024 16.449 15.003C16.8605 13.8923 17.0667 12.7156 17.0574 11.5308V1.22514V0.00488281H11.7589V1.22514Z" fill="#111111"/>
</svg>
