<svg width="32" height="33" viewBox="0 0 32 33" fill="none" xmlns="http://www.w3.org/2000/svg">
<path d="M14.1771 2.57292C15.1833 1.71251 16.8313 1.71251 17.8521 2.57292L20.1563 4.55626C20.5938 4.93542 21.4104 5.24167 21.9938 5.24167H24.4729C26.0187 5.24167 27.2875 6.51042 27.2875 8.05626V10.5354C27.2875 11.1042 27.5937 11.9354 27.9729 12.3729L29.9562 14.6771C30.8167 15.6833 30.8167 17.3313 29.9562 18.3521L27.9729 20.6563C27.5937 21.0938 27.2875 21.9104 27.2875 22.4938V24.9729C27.2875 26.5188 26.0187 27.7875 24.4729 27.7875H21.9938C21.425 27.7875 20.5938 28.0938 20.1563 28.4729L17.8521 30.4563C16.8458 31.3167 15.1979 31.3167 14.1771 30.4563L11.8729 28.4729C11.4354 28.0938 10.6187 27.7875 10.0354 27.7875H7.5125C5.96667 27.7875 4.69792 26.5188 4.69792 24.9729V22.4792C4.69792 21.9104 4.39167 21.0938 4.02708 20.6563L2.05833 18.3375C1.2125 17.3313 1.2125 15.6979 2.05833 14.6917L4.02708 12.3729C4.39167 11.9354 4.69792 11.1188 4.69792 10.55V8.04167C4.69792 6.49584 5.96667 5.22709 7.5125 5.22709H10.0354C10.6042 5.22709 11.4354 4.92084 11.8729 4.54167L14.1771 2.57292Z" stroke="#111111" stroke-width="2" stroke-linecap="round" stroke-linejoin="round"/>
</svg>
