<svg width="150" height="50" viewBox="0 0 150 50" fill="none" xmlns="http://www.w3.org/2000/svg">
<rect width="150" height="50" rx="25" fill="#111111"/>
<path d="M48.2637 27.324C48.2637 28.968 46.9437 30.12 44.7837 30.12C42.6117 30.12 41.2557 28.956 41.1237 27.132H42.9717C43.0197 28.08 43.6317 28.692 44.7477 28.692C45.6717 28.692 46.3317 28.284 46.3317 27.588C46.3317 27.048 45.9117 26.724 45.1797 26.58L43.7637 26.304C42.4557 26.052 41.4477 25.344 41.4477 23.916C41.4477 22.38 42.8037 21.276 44.6637 21.276C46.5957 21.276 48.0117 22.404 48.1317 24.204H46.2837C46.2237 23.304 45.5997 22.692 44.6877 22.692C43.7997 22.692 43.2957 23.196 43.2957 23.796C43.2957 24.384 43.8357 24.636 44.4597 24.756L45.9357 25.056C47.4477 25.356 48.2637 26.052 48.2637 27.324ZM56.6767 21.384V26.724C56.6767 28.764 55.3807 30.18 53.1367 30.18C50.8567 30.18 49.5847 28.764 49.5847 26.724V21.384H51.4087V26.76C51.4087 27.828 51.9247 28.548 53.1367 28.548C54.3367 28.548 54.8527 27.828 54.8527 26.76V21.384H56.6767ZM64.8652 27.468C64.8652 29.064 63.6892 30 61.7932 30H58.4212V21.384H61.6612C63.4732 21.384 64.5892 22.2 64.5892 23.676C64.5892 24.468 64.1452 25.104 63.3772 25.5C64.3372 25.836 64.8652 26.52 64.8652 27.468ZM61.5172 22.824H60.0772V24.828H61.5172C62.4052 24.828 62.8612 24.444 62.8612 23.82C62.8612 23.208 62.4052 22.824 61.5172 22.824ZM61.6492 26.28H60.0772V28.56H61.6492C62.6332 28.56 63.1492 28.128 63.1492 27.396C63.1492 26.712 62.6332 26.28 61.6492 26.28ZM72.8027 27.324C72.8027 28.968 71.4827 30.12 69.3227 30.12C67.1507 30.12 65.7947 28.956 65.6627 27.132H67.5107C67.5587 28.08 68.1707 28.692 69.2867 28.692C70.2107 28.692 70.8707 28.284 70.8707 27.588C70.8707 27.048 70.4507 26.724 69.7187 26.58L68.3027 26.304C66.9947 26.052 65.9867 25.344 65.9867 23.916C65.9867 22.38 67.3427 21.276 69.2027 21.276C71.1347 21.276 72.5507 22.404 72.6707 24.204H70.8227C70.7627 23.304 70.1387 22.692 69.2267 22.692C68.3387 22.692 67.8347 23.196 67.8347 23.796C67.8347 24.384 68.3747 24.636 68.9987 24.756L70.4747 25.056C71.9867 25.356 72.8027 26.052 72.8027 27.324ZM77.7294 30.18C75.3054 30.18 73.4094 28.212 73.4094 25.68C73.4094 23.16 75.3054 21.204 77.7294 21.204C79.9974 21.204 81.7734 22.716 82.0734 24.924H80.1414C79.9374 23.688 78.9774 22.836 77.7534 22.836C76.2774 22.836 75.2814 24 75.2814 25.68C75.2814 27.372 76.2774 28.548 77.7534 28.548C78.9774 28.548 79.9254 27.684 80.1414 26.448H82.0734C81.7734 28.68 79.9974 30.18 77.7294 30.18ZM85.171 30H83.347V21.384H86.719C88.891 21.384 90.151 22.392 90.151 24.18C90.151 25.344 89.431 26.268 88.207 26.676L90.427 30H88.255L86.311 26.952H85.171V30ZM85.171 22.896V25.452H86.635C87.739 25.452 88.327 25.02 88.327 24.18C88.327 23.328 87.739 22.896 86.635 22.896H85.171ZM93.3858 30H91.5618V21.384H93.3858V30ZM101.592 27.468C101.592 29.064 100.416 30 98.5198 30H95.1478V21.384H98.3878C100.2 21.384 101.316 22.2 101.316 23.676C101.316 24.468 100.872 25.104 100.104 25.5C101.064 25.836 101.592 26.52 101.592 27.468ZM98.2438 22.824H96.8038V24.828H98.2438C99.1318 24.828 99.5878 24.444 99.5878 23.82C99.5878 23.208 99.1318 22.824 98.2438 22.824ZM98.3758 26.28H96.8038V28.56H98.3758C99.3598 28.56 99.8758 28.128 99.8758 27.396C99.8758 26.712 99.3598 26.28 98.3758 26.28ZM108.713 28.416V30H102.917V21.384H108.629V22.968H104.741V24.78H108.269V26.352H104.741V28.416H108.713Z" fill="white"/>
</svg>
