<svg width="290" height="50" viewBox="0 0 290 50" fill="none" xmlns="http://www.w3.org/2000/svg">
<rect x="0.5" y="0.5" width="289" height="49" rx="24.5" fill="white"/>
<path d="M26.656 29.155V30H21.053V20.666H26.565V21.511H22.028V24.761H26.175V25.606H22.028V29.155H26.656ZM29.3121 26.009V30H28.4021V23.149H29.2471V24.436C29.6891 23.591 30.5211 23.019 31.5091 23.019C32.9391 23.019 33.8621 23.929 33.8621 25.554V30H32.9521V25.866C32.9521 24.553 32.3541 23.812 31.2361 23.812C30.1701 23.812 29.3121 24.735 29.3121 26.009ZM39.2883 29.129V29.935C38.9373 30.078 38.6383 30.13 38.3003 30.13C37.1693 30.13 36.2983 29.545 36.2983 28.063V23.916H34.6863V23.149H36.2983V21.121H37.2083V23.149H39.3533V23.916H37.2083V27.868C37.2083 28.934 37.7283 29.298 38.4823 29.298C38.7683 29.298 39.0023 29.246 39.2883 29.129ZM43.2044 30.13C41.2804 30.13 40.0064 28.687 40.0064 26.516C40.0064 24.514 41.3324 23.019 43.1524 23.019C45.1024 23.019 46.3764 24.592 46.2204 26.789H40.9164C40.9944 28.414 41.8524 29.415 43.1914 29.415C44.3354 29.415 45.1284 28.778 45.3494 27.686H46.2464C45.9344 29.207 44.7774 30.13 43.2044 30.13ZM43.1394 23.721C41.9044 23.721 41.0334 24.67 40.9164 26.165H45.2714C45.1934 24.631 44.4004 23.721 43.1394 23.721ZM48.6343 26.334V30H47.7243V23.149H48.5693V24.709C49.0373 23.695 50.0513 23.045 51.1823 23.045V23.994C49.7393 23.942 48.6343 24.839 48.6343 26.334ZM60.2894 23.149L56.7794 32.509H55.8044L56.8054 29.909L54.0884 23.149H55.0634L57.2734 28.817L59.3664 23.149H60.2894ZM63.8863 30.13C62.0013 30.13 60.6363 28.635 60.6363 26.568C60.6363 24.514 62.0013 23.032 63.8863 23.032C65.7843 23.032 67.1493 24.514 67.1493 26.568C67.1493 28.635 65.7843 30.13 63.8863 30.13ZM63.8863 29.337C65.2253 29.337 66.2263 28.271 66.2263 26.568C66.2263 24.891 65.2253 23.825 63.8863 23.825C62.5603 23.825 61.5593 24.891 61.5593 26.568C61.5593 28.271 62.5603 29.337 63.8863 29.337ZM73.0018 27.231V23.149H73.8988V30H73.0538V28.765C72.7028 29.558 71.8708 30.13 70.8698 30.13C69.4788 30.13 68.5558 29.337 68.5558 27.608V23.149H69.4658V27.413C69.4658 28.804 70.1548 29.337 71.1168 29.337C72.2088 29.337 73.0018 28.453 73.0018 27.231ZM76.7798 26.334V30H75.8698V23.149H76.7148V24.709C77.1828 23.695 78.1968 23.045 79.3278 23.045V23.994C77.8848 23.942 76.7798 24.839 76.7798 26.334ZM85.8479 30.13C83.9239 30.13 82.6499 28.687 82.6499 26.516C82.6499 24.514 83.9759 23.019 85.7959 23.019C87.7459 23.019 89.0199 24.592 88.8639 26.789H83.5599C83.6379 28.414 84.4959 29.415 85.8349 29.415C86.9789 29.415 87.7719 28.778 87.9929 27.686H88.8899C88.5779 29.207 87.4209 30.13 85.8479 30.13ZM85.7829 23.721C84.5479 23.721 83.6769 24.67 83.5599 26.165H87.9149C87.8369 24.631 87.0439 23.721 85.7829 23.721ZM91.2779 30H90.3679V23.149H91.2129V24.436C91.6679 23.552 92.4739 23.019 93.4489 23.019C94.5149 23.019 95.3079 23.604 95.5939 24.605C96.0229 23.643 96.8809 23.019 97.9599 23.019C99.3769 23.019 100.261 23.955 100.261 25.554V30H99.3639V25.853C99.3639 24.553 98.7659 23.812 97.6609 23.812C96.6209 23.812 95.7759 24.722 95.7759 25.983V30H94.8659V25.853C94.8659 24.553 94.2679 23.812 93.1629 23.812C92.1099 23.812 91.2779 24.722 91.2779 25.983V30ZM106.387 30V28.752C105.984 29.61 105.152 30.13 104.086 30.13C102.669 30.13 101.746 29.337 101.746 28.102C101.746 26.763 102.812 26.061 104.892 26.061C105.308 26.061 105.62 26.087 106.296 26.139V25.567C106.296 24.423 105.685 23.747 104.645 23.747C103.527 23.747 102.825 24.436 102.812 25.554H101.98C102.019 24.033 103.072 23.019 104.632 23.019C106.231 23.019 107.167 23.955 107.167 25.541V30H106.387ZM102.617 28.076C102.617 28.908 103.254 29.467 104.216 29.467C105.49 29.467 106.296 28.635 106.296 27.348V26.737C105.711 26.685 105.308 26.672 104.931 26.672C103.371 26.672 102.617 27.127 102.617 28.076ZM110.264 21.563C110.264 21.966 109.965 22.252 109.523 22.252C109.094 22.252 108.795 21.966 108.795 21.563C108.795 21.173 109.094 20.887 109.523 20.887C109.965 20.887 110.264 21.173 110.264 21.563ZM109.991 30H109.081V23.149H109.991V30ZM112.873 30H111.963V20.666H112.873V30ZM116.352 29.246C116.352 29.714 116.014 30.065 115.533 30.065C115.065 30.065 114.714 29.714 114.714 29.246C114.714 28.752 115.065 28.414 115.533 28.414C116.014 28.414 116.352 28.752 116.352 29.246ZM119.704 29.246C119.704 29.714 119.366 30.065 118.885 30.065C118.417 30.065 118.066 29.714 118.066 29.246C118.066 28.752 118.417 28.414 118.885 28.414C119.366 28.414 119.704 28.752 119.704 29.246ZM123.056 29.246C123.056 29.714 122.718 30.065 122.237 30.065C121.769 30.065 121.418 29.714 121.418 29.246C121.418 28.752 121.769 28.414 122.237 28.414C122.718 28.414 123.056 28.752 123.056 29.246Z" fill="#999999"/>
<rect x="0.5" y="0.5" width="289" height="49" rx="24.5" stroke="#EBEBEB"/>
</svg>
