<svg width="93" height="20" viewBox="0 0 93 20" fill="none" xmlns="http://www.w3.org/2000/svg">
<path d="M11.8115 1.22502V11.5418C11.8355 12.1366 11.7215 12.7288 11.4782 13.2723C11.2851 13.6985 11.0006 14.0772 10.6449 14.3816C10.3356 14.6292 9.98079 14.8139 9.60042 14.9252C8.93576 15.139 8.22063 15.139 7.55597 14.9252C7.15401 14.8171 6.77673 14.6326 6.44486 14.3816C6.08585 14.0776 5.79766 13.6991 5.60042 13.2723C5.36685 12.7261 5.25683 12.1353 5.27819 11.5418V0.00476074H0.000415295V11.5418C-0.0106727 12.7278 0.200358 13.9054 0.622638 15.014C1.01056 16.0111 1.60068 16.9176 2.35597 17.6763C3.13104 18.4276 4.05436 19.0094 5.06708 19.3847C6.19103 19.7955 7.3815 19.9949 8.57819 19.9727C9.77559 19.9913 10.9661 19.7882 12.0893 19.3736C13.102 18.9983 14.0253 18.4165 14.8004 17.6653C15.5571 16.9098 16.1442 16.0022 16.5226 15.0029C16.936 13.8922 17.143 12.7155 17.1337 11.5307V1.22502V0.00476074H11.8115V1.22502Z" fill="#111111"/>
<path d="M36.2774 0.00500488H36.1552L30.5997 8.77978C30.5997 8.77978 24.8663 0.00500488 24.833 0.00500488H19.3997V19.9729H24.833V9.55631L30.5663 17.6433L36.1219 9.55631V19.9729H41.5663V18.7526V1.22526V0.00500488H36.2774Z" fill="#111111"/>
<path d="M43.8549 1.22526V10.1997V18.7637V19.3184V19.984H44.4882H48.5215H49.166V19.3406V10.1997L49.1771 1.22526V0.00500488H43.8549V1.22526Z" fill="#111111"/>
<path d="M91.6108 6.11735C91.1044 4.93333 90.3766 3.85655 89.4663 2.94468C88.5514 2.03499 87.4734 1.30496 86.2886 0.792583C85.059 0.269587 83.7362 0 82.3997 0C81.0631 0 79.7404 0.269587 78.5108 0.792583C77.3247 1.29677 76.2489 2.02788 75.3441 2.94468C74.4453 3.86131 73.7256 4.93727 73.2219 6.11735C72.6981 7.34498 72.428 8.66561 72.428 10C72.428 11.3344 72.6981 12.655 73.2219 13.8826C73.7322 15.0645 74.4596 16.1406 75.3663 17.0553C76.2711 17.9721 77.3469 18.7032 78.533 19.2074C79.7626 19.7304 81.0854 20 82.4219 20C83.7584 20 85.0812 19.7304 86.3108 19.2074C87.4957 18.695 88.5736 17.965 89.4886 17.0553C90.3988 16.1434 91.1267 15.0667 91.633 13.8826C92.1645 12.6541 92.4296 11.3271 92.4108 9.98891C92.4181 8.65675 92.1456 7.33785 91.6108 6.11735ZM86.8108 11.8859C86.5701 12.4726 86.2237 13.0103 85.7886 13.4722C85.3506 13.9335 84.8307 14.3097 84.2552 14.5815C83.6794 14.8557 83.0488 14.996 82.4108 14.992C81.7692 14.9962 81.135 14.8559 80.5552 14.5815C79.9848 14.3121 79.4718 13.9355 79.0441 13.4722C78.6126 13.0097 78.2699 12.472 78.033 11.8859C77.779 11.2858 77.6504 10.6403 77.6552 9.98891C77.6665 8.70203 78.1623 7.46649 79.0441 6.52781C79.4743 6.06736 79.9868 5.69114 80.5552 5.41848C81.135 5.14412 81.7692 5.00382 82.4108 5.00803C83.0488 5.00396 83.6794 5.14429 84.2552 5.41848C84.8288 5.69357 85.3481 6.06931 85.7886 6.52781C86.2282 6.98192 86.5753 7.51689 86.8108 8.10305C87.0563 8.70177 87.1846 9.34195 87.1886 9.98891C87.1877 10.6398 87.0594 11.2842 86.8108 11.8859Z" fill="#111111"/>
<path d="M65.5555 0.00500488H64.8777V0.681695V1.22526V5.2854H70.1666V1.22526V0.681695V0.00500488H69.5555H65.5555Z" fill="#111111"/>
<path d="M56.8774 0.00500488H56.1997H52.1219H52.1108H51.433V0.681695V1.22526V5.2854V18.7637V19.3073V19.984H52.1219H56.1997H56.8774V19.3073V18.7637V8.41371L64.8774 19.984H69.4885H70.1663V19.3073V18.7637V17.8097L60.533 5.2854L56.8774 0.00500488Z" fill="#111111"/>
</svg>
